2014014_C5_04_grf
version=1
nRows=18
nColumns=19
inDegrees=no
endheader
time	ground_force_1_vx	ground_force_1_vy	ground_force_1_vz	ground_force_1_px	ground_force_1_py	ground_force_1_pz	ground_force_1_mx	ground_force_1_my	ground_force_1_mz	ground_force_2_vx	ground_force_2_vy	ground_force_2_vz	ground_force_2_px	ground_force_2_py	ground_force_2_pz	ground_force_2_mx	ground_force_2_my	ground_force_2_mz
      0.78500000	    -45.37606426	    684.09882486	    -24.89237711	     -0.20355425	     -0.00200000	      0.31429920	      0.00000000	      1.74066256	      0.00000000	      0.00000000	      0.00000000	      0.00000000	      0.00000000	      0.00000000	      0.00000000	      0.00000000	      0.00000000	      0.00000000
      0.78600000	    -44.74827647	    681.39217794	    -24.70330149	     -0.20303276	     -0.00200000	      0.31449794	      0.00000000	      1.76073064	      0.00000000	      0.00000000	      0.00000000	      0.00000000	      0.00000000	      0.00000000	      0.00000000	      0.00000000	      0.00000000	      0.00000000
      0.78700000	    -44.12693856	    678.75441164	    -24.52196851	     -0.20251317	     -0.00200000	      0.31469683	      0.00000000	      1.78059082	      0.00000000	      0.00000000	      0.00000000	      0.00000000	      0.00000000	      0.00000000	      0.00000000	      0.00000000	      0.00000000	      0.00000000
      0.78800000	    -43.51053480	    676.17140710	    -24.34701920	     -0.20199522	     -0.00200000	      0.31489581	      0.00000000	      1.80028307	      0.00000000	      0.00000000	      0.00000000	      0.00000000	      0.00000000	      0.00000000	      0.00000000	      0.00000000	      0.00000000	      0.00000000
      0.78900000	    -42.90001374	    673.65638912	    -24.18027185	     -0.20147947	     -0.00200000	      0.31509489	      0.00000000	      1.81976346	      0.00000000	      0.00000000	      0.00000000	      0.00000000	      0.00000000	      0.00000000	      0.00000000	      0.00000000	      0.00000000	      0.00000000
      0.79000000	    -42.29397420	    671.19538784	    -24.02025014	     -0.20096559	     -0.00200000	      0.31529403	      0.00000000	      1.83907284	      0.00000000	      0.00000000	      0.00000000	      0.00000000	      0.00000000	      0.00000000	      0.00000000	      0.00000000	      0.00000000	      0.00000000
      0.79100000	    -41.69324040	    668.80159080	    -23.86882380	     -0.20045421	     -0.00200000	      0.31549320	      0.00000000	      1.85816429	      0.00000000	      0.00000000	      0.00000000	      0.00000000	      0.00000000	      0.00000000	      0.00000000	      0.00000000	      0.00000000	      0.00000000
      0.79200000	    -41.09652434	    666.46106541	    -23.72441366	     -0.19994493	     -0.00200000	      0.31569238	      0.00000000	      1.87707757	      0.00000000	      0.00000000	      0.00000000	      0.00000000	      0.00000000	      0.00000000	      0.00000000	      0.00000000	      0.00000000	      0.00000000
      0.79300000	    -40.50455382	    664.18685019	    -23.58892523	     -0.19943842	     -0.00200000	      0.31589154	      0.00000000	      1.89576238	      0.00000000	      0.00000000	      0.00000000	      0.00000000	      0.00000000	      0.00000000	      0.00000000	      0.00000000	      0.00000000	      0.00000000
      0.79400000	    -39.91616797	    661.96516156	    -23.46068770	     -0.19893423	     -0.00200000	      0.31609067	      0.00000000	      1.91426219	      0.00000000	      0.00000000	      0.00000000	      0.00000000	      0.00000000	      0.00000000	      0.00000000	      0.00000000	      0.00000000	      0.00000000
      0.79500000	    -39.33200799	    659.80885178	    -23.34162220	     -0.19843306	     -0.00200000	      0.31628971	      0.00000000	      1.93253209	      0.00000000	      0.00000000	      0.00000000	      0.00000000	      0.00000000	      0.00000000	      0.00000000	      0.00000000	      0.00000000	      0.00000000
      0.79600000	    -38.75103313	    657.70439804	    -23.22996855	     -0.19793441	     -0.00200000	      0.31648866	      0.00000000	      1.95062265	      0.00000000	      0.00000000	      0.00000000	      0.00000000	      0.00000000	      0.00000000	      0.00000000	      0.00000000	      0.00000000	      0.00000000
      0.79700000	    -38.17379661	    655.66446632	    -23.12764004	     -0.19743903	     -0.00200000	      0.31668743	      0.00000000	      1.96849602	      0.00000000	      0.00000000	      0.00000000	      0.00000000	      0.00000000	      0.00000000	      0.00000000	      0.00000000	      0.00000000	      0.00000000
      0.79800000	    -37.59935685	    653.67579460	    -23.03279936	     -0.19694633	     -0.00200000	      0.31688601	      0.00000000	      1.98620255	      0.00000000	      0.00000000	      0.00000000	      0.00000000	      0.00000000	      0.00000000	      0.00000000	      0.00000000	      0.00000000	      0.00000000
      0.79900000	    -37.02817066	    651.75089985	    -22.94732518	     -0.19645710	     -0.00200000	      0.31708430	      0.00000000	      2.00370883	      0.00000000	      0.00000000	      0.00000000	      0.00000000	      0.00000000	      0.00000000	      0.00000000	      0.00000000	      0.00000000	      0.00000000
      0.80000000	    -36.45940125	    649.87674356	    -22.86933213	     -0.19597072	     -0.00200000	      0.31728231	      0.00000000	      2.02106101	      0.00000000	      0.00000000	      0.00000000	      0.00000000	      0.00000000	      0.00000000	      0.00000000	      0.00000000	      0.00000000	      0.00000000
      0.80100000	    -35.89343978	    648.06569368	    -22.80066088	     -0.19548795	     -0.00200000	      0.31747987	      0.00000000	      2.03822739	      0.00000000	      0.00000000	      0.00000000	      0.00000000	      0.00000000	      0.00000000	      0.00000000	      0.00000000	      0.00000000	      0.00000000
      0.80200000	    -35.32956541	    646.30500972	    -22.73941934	     -0.19500816	     -0.00200000	      0.31767701	     -0.00000000	      2.05525075	     -0.00000000	      0.00000000	      0.00000000	      0.00000000	      0.00000000	      0.00000000	      0.00000000	      0.00000000	      0.00000000	      0.00000000
